<?xml version="1.0" encoding="UTF-8" standalone="no"?><!DOCTYPE svg PUBLIC "-//W3C//DTD SVG 1.1//EN" "http://www.w3.org/Graphics/SVG/1.1/DTD/svg11.dtd"><svg width="100%" height="100%" viewBox="0 0 2370 2500" version="1.1" xmlns="http://www.w3.org/2000/svg" xmlns:xlink="http://www.w3.org/1999/xlink" xml:space="preserve" xmlns:serif="http://www.serif.com/" style="fill-rule:evenodd;clip-rule:evenodd;stroke-linejoin:round;stroke-miterlimit:1.41421;"><path d="M1175.03,332.539l-1167.17,-254.777l185.443,1787.58l989.29,632.185l994.4,-640.753l185.369,-1787.52l-1187.33,263.281Z" style="fill:#ccc;fill-rule:nonzero;"/><path d="M2245.32,211.012l-1066.7,240.26l0,1916.35l893.944,-570.654l172.751,-1585.96l0.009,0Z" style="fill:#0e7b59;fill-rule:nonzero;"/><path d="M139.543,217.568l158.91,1586.72l880.141,563.335l0.217,-1916.91l-1039.26,-233.156l-0.009,0.011Z" style="fill:#309f7c;fill-rule:nonzero;"/><path d="M746.092,980.848c0,-93.286 34.368,-174.296 103.105,-243.033c68.737,-68.737 174.296,-103.105 316.679,-103.105c152.202,0 267.582,39.278 346.138,117.834c68.736,68.737 103.104,149.748 103.104,243.033l-169.386,0c0,-58.917 -19.639,-108.015 -58.917,-147.293c-44.188,-44.187 -112.924,-66.281 -206.21,-66.281c-103.104,0 -174.296,19.639 -213.574,58.917c-34.368,34.368 -51.552,73.646 -51.552,117.834c0,44.188 9.819,76.101 29.458,95.74c24.549,24.549 68.737,49.098 132.564,73.646c112.924,49.098 240.577,105.56 382.96,169.387c39.278,14.729 76.101,39.278 110.47,73.646c54.007,54.007 81.011,117.834 81.011,191.481c0,98.195 -34.369,181.66 -103.105,250.397c-73.646,73.646 -193.935,110.469 -360.867,110.469c-162.022,0 -287.221,-44.187 -375.596,-132.563c-63.827,-63.827 -95.74,-157.112 -95.74,-279.856l169.386,0c0,88.376 19.639,152.202 58.917,191.48c54.008,54.008 137.473,81.011 250.398,81.011c103.104,0 179.206,-24.548 228.303,-73.646c39.278,-39.278 58.917,-78.556 58.917,-117.834c0,-44.188 -14.729,-81.011 -44.188,-110.469c-24.548,-24.549 -63.826,-49.098 -117.834,-73.647c-49.097,-24.549 -112.924,-54.007 -191.48,-88.375c-88.376,-39.278 -159.567,-71.192 -213.574,-95.74c-39.278,-14.73 -73.647,-36.824 -103.105,-66.282c-44.188,-44.188 -66.282,-103.105 -66.282,-176.751Z" style="fill:url(#_Linear1);fill-rule:nonzero;"/><defs><linearGradient id="_Linear1" x1="0" y1="0" x2="1" y2="0" gradientUnits="userSpaceOnUse" gradientTransform="matrix(2.13333,0,0,2.13333,1178.23,690.568)"><stop offset="0" style="stop-color:#fff;stop-opacity:1"/><stop offset="0.15" style="stop-color:#e7e7e7;stop-opacity:1"/><stop offset="0.33" style="stop-color:#d3d3d3;stop-opacity:1"/><stop offset="1" style="stop-color:#ccc;stop-opacity:1"/></linearGradient></defs></svg>